# xmcd CD database file
#
# Track frame offsets:
#	150
#	15358
#	29011
#	42157
#	55993
#	68315
#	82146
#	95537
#	108576
#	123669
#	138181
#	152394
#	165365
#	179757
#	192269
#	207222
#	220974
#	241017
#	256248
#	268896
#	283443
#	298922
#	314770
#	329191
#
# Disc length: 4554 seconds
#
# Revision: 0
# Processed by: cddbd v1.5.2PL0 Copyright (c) Steve Scherf et al.
# Submitted via: CDex 1.79
#
DISCID=7311c818
DTITLE=Vaughn De Leath - Original Recordings 1925-1929
DYEAR=2012
DGENRE=Jazz
TTITLE0=Vaughn De Leath - Ukelele Lady (1925)
TTITLE1=Vaughn De Leath - Banana Oil (1925)
TTITLE2=Vaughn De Leath - Looking At The World (Thru Rose-Coloured Glasses) (1926)
TTITLE3=Vaughn De Leath - The Good Bad Girl (1926)
TTITLE4=Vaughn De Leath - Susie's Feller (1926)
TTITLE5=Vaughn De Leath - That's A Good Girl (1926)
TTITLE6=Vaughn De Leath - Just Wondering (1927)
TTITLE7=Vaughn De Leath - I'm In Love Again (1927)
TTITLE8=Vaughn De Leath - Everything's Made For Love (1926)
TTITLE9=Vaughn De Leath - Oh, How I Love My Boatman (1927)
TTITLE10=Vaughn De Leath - Kentucky Babe (1927)
TTITLE11=Vaughn De Leath - Mighty Lak A Rose (1927)
TTITLE12=Vaughn De Leath - Sing Me A Baby Song (1927)
TTITLE13=Vaughn De Leath - Sometimes I'm Happy (1927)
TTITLE14=Vaughn De Leath - Can't Help Lovin' Dat Man (1928)
TTITLE15=Vaughn De Leath - Playground In The Sky (1927)
TTITLE16=Vaughn De Leath - The Man I Love (1928)
TTITLE17=Vaughn De Leath - I Can't Give You Anything But Love (1928)
TTITLE18=Vaughn De Leath - The Toymaker's Dream (1929)
TTITLE19=Vaughn De Leath - Wherever You Are (1927)
TTITLE20=Vaughn De Leath - I Must Have That Man (1928)
TTITLE21=Vaughn De Leath - Old-Fashioned Lady (1929)
TTITLE22=Vaughn De Leath - I Wanna Be Loved By You (1928)
TTITLE23=Vaughn De Leath - Button Up Your Overcoat (1929)
EXTD=YEAR: 2012
EXTT0=
EXTT1=
EXTT2=
EXTT3=
EXTT4=
EXTT5=
EXTT6=
EXTT7=
EXTT8=
EXTT9=
EXTT10=
EXTT11=
EXTT12=
EXTT13=
EXTT14=
EXTT15=
EXTT16=
EXTT17=
EXTT18=
EXTT19=
EXTT20=
EXTT21=
EXTT22=
EXTT23=
PLAYORDER=
